<?xml version="1.0" standalone="no"?>
<!DOCTYPE svg PUBLIC "-//W3C//DTD SVG 20010904//EN"
 "http://www.w3.org/TR/2001/REC-SVG-20010904/DTD/svg10.dtd">
<svg version="1.0" xmlns="http://www.w3.org/2000/svg"
 width="569.000000pt" height="569.000000pt" viewBox="0 0 569.000000 569.000000"
 preserveAspectRatio="xMidYMid meet">
<metadata>
Created by potrace 1.11, written by Peter Selinger 2001-2013
</metadata>
<g transform="translate(0.000000,569.000000) scale(0.100000,-0.100000)"
fill="#000000" stroke="none">
<path d="M2855 5187 c4 -31 5 -57 1 -57 -3 0 -27 14 -53 30 l-48 31 -3 -41
c-2 -22 -6 -40 -9 -40 -3 0 -44 18 -91 40 -47 22 -87 38 -89 36 -2 -2 1 -25 8
-50 6 -26 9 -49 6 -53 -5 -4 -101 27 -191 63 -15 6 -17 3 -12 -14 3 -12 9 -32
12 -44 7 -23 20 -23 -206 -3 l-65 6 53 -50 c28 -27 52 -52 52 -54 0 -2 -57 -7
-127 -11 -71 -4 -152 -10 -182 -13 l-54 -6 74 -38 c41 -21 70 -38 64 -39 -48
-4 -288 -40 -292 -44 -3 -3 29 -21 72 -41 43 -19 76 -37 74 -39 -2 -2 -65 -16
-139 -31 -74 -16 -139 -31 -143 -35 -4 -4 20 -15 53 -25 33 -10 60 -21 60 -25
0 -3 -37 -22 -82 -40 -46 -19 -103 -43 -128 -54 l-45 -19 100 -16 99 -16 -116
-95 c-65 -52 -117 -98 -118 -102 0 -4 25 -10 55 -13 31 -4 55 -11 53 -15 -2
-5 -45 -59 -96 -120 -51 -62 -91 -114 -88 -117 4 -4 65 13 123 34 7 3 -15 -55
-48 -127 -33 -73 -58 -134 -55 -137 2 -3 28 0 57 6 28 6 53 10 55 9 1 -2 -2
-43 -8 -93 -6 -53 -8 -198 -5 -350 l6 -260 -54 -2 c-106 -3 -180 -59 -211
-160 -19 -61 -12 -126 26 -239 16 -46 36 -124 45 -172 45 -248 142 -424 267
-486 29 -14 60 -26 70 -26 10 0 21 -6 23 -12 3 -7 13 -92 24 -188 37 -323 65
-376 365 -681 96 -97 199 -210 229 -251 75 -101 144 -161 241 -208 242 -119
553 -116 790 8 83 43 164 116 217 193 22 32 114 134 205 226 328 332 360 390
399 743 18 169 19 170 43 170 10 0 41 12 70 26 125 62 222 238 266 484 9 47
29 126 46 174 40 121 46 171 26 239 -23 79 -73 130 -149 152 -33 9 -72 15 -87
13 l-29 -4 6 255 c6 272 -2 392 -37 561 -11 52 -25 172 -31 265 -7 94 -13 172
-15 174 -2 3 -15 -6 -29 -19 -14 -13 -28 -21 -31 -18 -3 4 -10 42 -15 84 -6
43 -12 80 -14 83 -3 2 -16 -4 -29 -13 -14 -8 -27 -12 -29 -8 -3 4 -8 37 -12
73 -9 88 -17 100 -48 71 -13 -12 -26 -22 -29 -22 -3 0 -9 32 -12 70 l-7 71
-46 -26 c-25 -14 -46 -25 -48 -25 -1 0 -14 44 -30 98 -16 53 -30 99 -32 101
-2 3 -18 -10 -37 -28 l-33 -32 -43 96 c-24 52 -47 95 -50 95 -4 0 -15 -20 -24
-45 -10 -25 -21 -45 -24 -45 -4 0 -20 32 -36 70 -17 39 -32 70 -35 70 -3 0
-18 -14 -33 -32 -14 -18 -28 -31 -31 -28 -2 3 -23 34 -47 70 l-44 64 -14 -44
c-8 -25 -16 -47 -18 -49 -1 -1 -31 27 -65 63 -34 37 -65 64 -68 60 -3 -3 -11
-22 -16 -42 l-10 -35 -50 66 c-28 36 -53 66 -57 67 -5 0 -9 -13 -9 -30 -1 -16
-3 -34 -4 -40 -1 -5 -3 -19 -4 -31 -1 -19 -5 -17 -48 18 -27 22 -65 52 -86 68
l-39 29 7 -57z m175 -192 c32 -25 61 -45 64 -45 3 0 6 12 6 28 1 26 3 25 49
-27 l48 -55 7 47 c4 26 11 49 16 52 5 3 32 -22 62 -56 l53 -61 11 28 c7 16 15
28 19 27 4 -1 20 -20 35 -43 l27 -41 22 28 c12 15 24 24 27 18 3 -5 24 -50 48
-100 l43 -90 25 55 24 54 23 -57 c13 -32 28 -60 33 -63 5 -3 20 4 33 16 19 18
26 20 29 9 2 -8 14 -45 27 -84 12 -38 23 -72 25 -74 2 -2 19 7 38 19 34 20 36
20 36 3 1 -37 18 -155 24 -161 4 -3 19 7 35 22 l28 27 12 -77 c6 -43 13 -79
15 -81 1 -2 15 6 29 18 25 19 27 19 27 2 1 -34 20 -166 25 -171 3 -3 16 5 30
18 l25 23 0 -69 c0 -38 -7 -109 -16 -158 -8 -48 -13 -90 -10 -93 2 -2 13 19
24 48 l19 53 16 -70 c33 -143 40 -260 33 -539 -7 -291 -15 -372 -37 -386 -12
-7 -15 13 -21 124 -8 154 -24 272 -43 327 -8 22 -32 63 -54 93 -55 72 -75 121
-106 262 -34 153 -57 205 -111 255 -116 107 -265 122 -629 64 -236 -38 -407
-38 -650 0 -99 15 -223 30 -275 33 -156 9 -292 -30 -387 -112 -44 -37 -106
-124 -123 -171 -9 -26 -5 -24 30 16 22 25 40 40 40 34 0 -30 -54 -244 -71
-284 -11 -24 -38 -68 -60 -97 -22 -30 -46 -71 -54 -93 -19 -55 -35 -173 -43
-327 -6 -112 -9 -131 -21 -123 -22 13 -30 98 -37 395 -9 395 3 469 97 564 24
24 36 41 26 37 -37 -12 -67 -18 -67 -12 0 4 20 47 45 96 25 49 45 93 45 97 0
4 -34 -28 -75 -72 l-75 -80 40 88 c45 100 46 104 25 109 -11 2 -2 19 34 63
l50 60 -39 10 -40 10 115 94 c63 51 115 97 115 102 0 5 -14 9 -31 9 -45 0 -28
14 61 50 74 30 100 50 65 50 -8 0 -15 4 -15 8 0 5 44 16 98 26 53 10 101 21
106 24 5 3 -20 20 -55 38 -35 18 -62 33 -59 34 3 0 75 9 160 20 85 11 157 20
160 20 3 1 -22 15 -55 33 l-60 31 110 9 c60 5 112 11 115 14 3 2 -8 16 -24 29
-15 14 -27 27 -25 29 2 2 32 0 67 -4 60 -7 62 -7 62 16 l0 23 96 -35 c53 -19
100 -35 104 -35 4 0 3 18 -2 40 -6 23 -8 43 -5 46 2 3 35 -8 71 -25 l66 -30 0
30 c0 16 4 29 8 29 4 0 32 -16 62 -35 30 -19 59 -35 63 -35 5 0 6 18 2 40 -4
22 -4 40 0 40 4 0 33 -20 65 -45z m-510 -965 c271 -39 390 -39 660 0 328 47
468 39 554 -32 50 -41 63 -71 97 -221 34 -149 61 -217 122 -297 58 -77 68
-129 74 -413 5 -226 6 -237 24 -232 18 6 19 0 19 -97 0 -150 -16 -266 -55
-408 -42 -151 -58 -240 -84 -472 -33 -293 -49 -323 -328 -609 -110 -114 -219
-234 -242 -267 -103 -152 -279 -232 -511 -232 -232 0 -408 80 -511 232 -23 33
-132 153 -242 267 -279 286 -295 316 -328 609 -26 232 -42 321 -84 472 -39
142 -55 258 -55 408 0 97 1 103 19 97 18 -5 19 6 24 232 6 284 16 336 74 413
61 80 88 148 122 297 33 148 47 179 93 218 88 74 228 83 558 35z m-1057 -1060
c6 -16 15 -30 19 -30 4 0 8 -6 8 -14 0 -10 -12 -12 -49 -8 -57 5 -85 -8 -107
-50 -27 -51 -1 -128 36 -108 14 8 17 18 13 49 -5 36 -3 42 19 52 20 9 32 8 57
-5 28 -15 31 -21 31 -62 0 -31 -8 -60 -27 -91 -43 -74 -34 -198 22 -274 14
-19 32 -49 40 -67 18 -38 66 -212 59 -212 -18 0 -67 36 -92 67 -61 78 -101
179 -132 337 -11 55 -34 142 -50 193 -57 177 -29 252 93 253 45 0 50 -2 60
-30z m2906 16 c59 -31 65 -101 21 -239 -16 -51 -39 -138 -50 -192 -33 -163
-77 -275 -136 -344 -22 -27 -72 -61 -88 -61 -7 0 41 174 59 212 8 18 26 48 40
67 34 47 48 103 43 183 -3 49 -9 75 -26 97 -16 22 -22 44 -22 80 0 46 3 52 30
66 37 19 45 19 65 -2 12 -11 15 -25 11 -48 -5 -22 -2 -36 9 -45 35 -29 65 46
41 104 -17 40 -61 61 -116 53 -30 -4 -40 -2 -40 9 0 8 5 14 10 14 6 0 10 6 10
14 0 43 82 61 139 32z"/>
<path d="M1997 3125 c-40 -21 -145 -104 -151 -121 -3 -7 0 -17 7 -21 6 -4 137
-15 290 -24 153 -10 316 -20 362 -24 76 -7 84 -6 94 13 19 35 -7 50 -149 88
-74 19 -186 51 -249 70 -125 37 -162 41 -204 19z"/>
<path d="M3525 3114 c-44 -14 -154 -45 -245 -70 -172 -46 -198 -60 -179 -97
10 -17 18 -19 68 -14 31 3 189 13 351 22 162 9 305 21 317 26 33 13 21 31 -63
95 -92 71 -129 76 -249 38z"/>
<path d="M2203 2908 c-40 -4 -88 -15 -105 -24 -53 -27 -118 -84 -118 -104 0
-34 31 -32 72 6 37 33 93 64 118 64 5 0 10 -13 10 -28 0 -67 98 -99 139 -46
12 15 21 39 21 54 0 26 1 27 43 20 53 -8 68 -17 66 -38 -3 -36 1 -43 23 -40
14 2 26 14 32 31 13 35 -17 77 -65 93 -46 16 -149 21 -236 12z"/>
<path d="M3261 2897 c-49 -17 -78 -59 -65 -94 6 -17 18 -29 32 -31 22 -3 26 4
23 40 -2 20 21 33 72 41 35 5 37 4 37 -22 0 -16 9 -40 21 -55 42 -54 139 -21
139 47 0 25 3 27 28 21 39 -10 59 -21 102 -60 40 -36 70 -38 70 -4 0 20 -64
77 -120 106 -45 23 -285 31 -339 11z"/>
<path d="M2637 2866 c-4 -9 3 -36 14 -62 24 -53 20 -93 -13 -161 -11 -23 -18
-49 -14 -58 11 -30 41 -11 69 45 25 48 28 64 25 122 -3 49 -9 75 -24 95 -24
32 -49 41 -57 19z"/>
<path d="M3017 2862 c-25 -27 -37 -69 -37 -126 0 -90 75 -207 96 -151 4 9 -3
35 -14 58 -34 68 -37 108 -13 162 16 36 18 51 10 61 -15 18 -23 18 -42 -4z"/>
<path d="M2563 2338 c-6 -13 -27 -43 -48 -68 -51 -60 -75 -115 -75 -173 0 -90
46 -152 107 -145 20 2 29 9 31 26 3 18 -2 23 -27 28 -46 9 -54 26 -49 98 3 52
9 70 33 100 71 89 86 111 83 131 -4 29 -42 32 -55 3z"/>
<path d="M3084 2347 c-8 -22 11 -60 56 -112 51 -59 60 -81 60 -149 0 -57 -8
-69 -53 -80 -39 -9 -35 -50 6 -54 61 -7 107 55 107 145 0 59 -25 114 -78 175
-22 26 -43 57 -47 68 -7 22 -43 27 -51 7z"/>
<path d="M2615 2036 c-30 -21 -12 -46 33 -46 33 0 42 -6 68 -39 39 -53 76 -73
134 -73 58 0 95 20 134 73 26 33 35 39 68 39 45 0 63 25 33 46 -41 30 -103 9
-145 -50 -26 -36 -58 -56 -90 -56 -32 0 -64 20 -90 56 -42 59 -104 80 -145 50z"/>
<path d="M2747 1634 c-16 -16 -5 -44 23 -59 63 -32 190 -9 190 35 0 28 -13 31
-59 13 -42 -16 -75 -14 -132 11 -8 4 -18 3 -22 0z"/>
<path d="M2357 1503 c-13 -13 -7 -42 11 -47 10 -3 58 -6 107 -7 50 0 152 -7
227 -16 116 -13 154 -14 245 -3 59 7 164 14 233 16 157 5 172 8 168 37 -3 21
-6 22 -118 19 -63 -1 -174 -8 -246 -14 -100 -9 -167 -9 -275 0 -209 17 -345
23 -352 15z"/>
<path d="M2614 1315 c-9 -22 2 -32 64 -56 83 -33 261 -33 345 0 59 23 78 44
59 63 -8 8 -31 5 -84 -10 -94 -28 -204 -29 -290 -2 -76 24 -87 24 -94 5z"/>
</g>
</svg>
